<?xml version="1.0" encoding="UTF-8"?>
<!DOCTYPE svg PUBLIC "-//W3C//DTD SVG 1.1//EN" "http://www.w3.org/Graphics/SVG/1.1/DTD/svg11.dtd">
<svg xmlns="http://www.w3.org/2000/svg" version="1.1" width="512px" height="512px" style="shape-rendering:geometricPrecision; text-rendering:geometricPrecision; image-rendering:optimizeQuality; fill-rule:evenodd; clip-rule:evenodd" xmlns:xlink="http://www.w3.org/1999/xlink">
<g><path style="opacity:0.887" fill="#050404" d="M 259.5,71.5 C 276.449,69.1786 290.282,74.5119 301,87.5C 303.993,92.8109 305.993,98.4775 307,104.5C 307.773,115.269 307.439,125.936 306,136.5C 317.747,123.916 330.247,112.249 343.5,101.5C 350.762,104.044 353.929,109.044 353,116.5C 341.812,127.688 330.645,138.855 319.5,150C 321.622,152.245 322.956,154.912 323.5,158C 321.589,162.271 321.089,166.771 322,171.5C 326.103,176.705 329.437,182.372 332,188.5C 337.596,194.093 342.43,200.26 346.5,207C 356.592,205.122 365.592,200.789 373.5,194C 371.619,188.975 371.119,183.808 372,178.5C 373.126,174.251 373.792,169.918 374,165.5C 376.153,163.556 378.653,163.056 381.5,164C 384.106,165.938 385.939,168.438 387,171.5C 390.789,165.377 395.622,160.21 401.5,156C 404.758,155.923 407.924,155.756 411,155.5C 412.473,155.903 413.806,156.57 415,157.5C 421.208,181.764 413.541,200.43 392,213.5C 384.133,226.534 374.299,237.868 362.5,247.5C 353.823,253.945 344.49,255.112 334.5,251C 322.311,242.805 311.145,233.305 301,222.5C 298.667,226.5 296.333,230.5 294,234.5C 293.667,238.833 293.333,243.167 293,247.5C 290.03,251.255 288.53,255.588 288.5,260.5C 290.124,260.64 291.29,259.973 292,258.5C 292.971,252.996 294.471,247.663 296.5,242.5C 299.625,247.249 302.625,252.083 305.5,257C 311.167,257.333 316.833,257.667 322.5,258C 323.451,258.718 323.617,259.551 323,260.5C 319.434,263.699 315.6,266.533 311.5,269C 309.968,272.008 310.968,273.842 314.5,274.5C 315.244,275.991 315.91,277.491 316.5,279C 330.065,285.036 342.232,293.203 353,303.5C 359.726,312.516 361.726,322.516 359,333.5C 354.875,340.919 350.375,348.086 345.5,355C 343.043,356.562 340.376,357.562 337.5,358C 329.167,368 320.833,378 312.5,388C 320.1,394.636 328.767,399.469 338.5,402.5C 342.497,406.29 343.163,410.457 340.5,415C 319.509,416.786 298.509,416.786 277.5,415C 276.584,414.626 275.75,414.126 275,413.5C 273.48,409.625 273.146,405.625 274,401.5C 276.029,394.439 279.363,388.106 284,382.5C 287.171,368.97 291.338,355.803 296.5,343C 294.817,339.38 294.15,335.546 294.5,331.5C 279.385,327.637 264.385,323.304 249.5,318.5C 244.046,320.727 238.713,323.227 233.5,326C 223.5,333.333 213.5,340.667 203.5,348C 200.763,351.882 198.597,356.049 197,360.5C 193.39,366.89 187.89,370.057 180.5,370C 168.637,381.529 157.137,393.362 146,405.5C 143.753,412.865 144.253,420.031 147.5,427C 147.205,429.923 145.871,432.257 143.5,434C 133.383,439.048 122.716,440.715 111.5,439C 103.269,436.797 100.103,431.63 102,423.5C 106.506,415.82 111.506,408.487 117,401.5C 121.988,388.853 126.988,376.187 132,363.5C 134.599,357.911 137.599,352.577 141,347.5C 141.333,342.833 141.667,338.167 142,333.5C 145.627,328.206 149.96,323.539 155,319.5C 160.422,308.571 166.589,298.071 173.5,288C 171.974,286.113 169.974,285.113 167.5,285C 165.649,283.316 163.982,281.483 162.5,279.5C 153.5,286 144.5,292.5 135.5,299C 125.574,302.633 117.908,299.8 112.5,290.5C 129.462,277.678 146.462,264.845 163.5,252C 149.473,244.309 139.307,233.142 133,218.5C 131.287,210.933 132.953,204.266 138,198.5C 150.871,184.618 165.204,172.618 181,162.5C 182.227,157.799 184.394,153.632 187.5,150C 199.655,146.772 211.988,144.438 224.5,143C 227.578,142.086 229.911,140.253 231.5,137.5C 225.594,120.365 226.761,103.698 235,87.5C 241.499,79.4804 249.666,74.147 259.5,71.5 Z M 192.5,210.5 C 197.583,218.769 196.083,225.769 188,231.5C 185.304,227.44 183.137,223.107 181.5,218.5C 181.608,217.558 181.941,216.725 182.5,216C 186.056,214.392 189.389,212.559 192.5,210.5 Z"/></g>
<g><path style="opacity:1" fill="#323231" d="M 262.5,76.5 C 288.665,76.0716 301.998,88.9049 302.5,115C 302.617,125.032 300.45,134.532 296,143.5C 297.128,134.568 297.461,125.568 297,116.5C 295.804,112.134 292.971,109.801 288.5,109.5C 281.205,111.376 274.205,114.043 267.5,117.5C 261.998,114.718 256.331,112.218 250.5,110C 244.047,108.45 240.213,110.95 239,117.5C 238.512,125.531 238.512,133.531 239,141.5C 232.98,127.52 231.98,113.187 236,98.5C 237.858,93.9515 240.358,89.7848 243.5,86C 249.368,81.7326 255.701,78.566 262.5,76.5 Z"/></g>
<g><path style="opacity:1" fill="#5e5f60" d="M 342.5,107.5 C 346.568,108.685 348.234,111.185 347.5,115C 345.529,114.066 343.696,112.566 342,110.5C 341.53,109.423 341.697,108.423 342.5,107.5 Z"/></g>
<g><path style="opacity:1" fill="#edc6a5" d="M 244.5,114.5 C 247.607,114.351 250.607,114.851 253.5,116C 258.168,118.585 263.002,120.752 268,122.5C 273.666,120.418 279.166,117.918 284.5,115C 286.902,114.186 289.235,114.353 291.5,115.5C 292.61,120.111 292.777,124.778 292,129.5C 288.692,131.57 285.192,133.237 281.5,134.5C 277.015,132.254 272.348,130.587 267.5,129.5C 262.766,130.447 258.266,132.113 254,134.5C 243.97,131.43 240.803,124.763 244.5,114.5 Z"/></g>
<g><path style="opacity:1" fill="#3f3e3e" d="M 331.5,120.5 C 333.167,120.5 334.833,120.5 336.5,120.5C 336.5,122.167 336.5,123.833 336.5,125.5C 334.833,125.5 333.167,125.5 331.5,125.5C 331.5,123.833 331.5,122.167 331.5,120.5 Z"/></g>
<g><path style="opacity:1" fill="#100f0d" d="M 248.5,119.5 C 253.536,120.851 258.202,123.018 262.5,126C 260.217,128.19 257.551,128.857 254.5,128C 251.619,125.721 249.619,122.888 248.5,119.5 Z"/></g>
<g><path style="opacity:1" fill="#12100e" d="M 283.5,120.5 C 284.873,120.343 286.207,120.51 287.5,121C 286.167,123 284.833,125 283.5,127C 279.833,129.274 276.499,128.941 273.5,126C 276.767,123.87 280.1,122.037 283.5,120.5 Z"/></g>
<g><path style="opacity:1" fill="#484849" d="M 323.5,126.5 C 327.446,126.488 329.113,128.488 328.5,132.5C 326.833,132.5 325.167,132.5 323.5,132.5C 323.5,130.5 323.5,128.5 323.5,126.5 Z"/></g>
<g><path style="opacity:1" fill="#3f3e3e" d="M 316.5,134.5 C 318.167,134.5 319.833,134.5 321.5,134.5C 321.5,136.167 321.5,137.833 321.5,139.5C 319.833,139.5 318.167,139.5 316.5,139.5C 316.5,137.833 316.5,136.167 316.5,134.5 Z"/></g>
<g><path style="opacity:1" fill="#313131" d="M 265.5,133.5 C 269.781,134.136 273.781,135.636 277.5,138C 282.232,139.036 286.566,138.203 290.5,135.5C 291.188,140.538 290.688,145.538 289,150.5C 285.5,154.667 281.667,158.5 277.5,162C 271.135,166.565 264.801,166.565 258.5,162C 254.701,159.203 251.201,156.036 248,152.5C 245.457,146.621 244.29,140.621 244.5,134.5C 251.815,139.928 258.815,139.595 265.5,133.5 Z"/></g>
<g><path style="opacity:1" fill="#5d5d5c" d="M 302.5,140.5 C 307.436,145.938 312.603,151.271 318,156.5C 318.563,157.725 318.23,158.725 317,159.5C 312.054,154.554 307.054,149.554 302,144.5C 301.421,143.072 301.588,141.738 302.5,140.5 Z"/></g>
<g><path style="opacity:1" fill="#323231" d="M 210.5,150.5 C 214.167,150.5 217.833,150.5 221.5,150.5C 227.516,175.721 237.516,199.221 251.5,221C 250.795,223.707 249.295,225.874 247,227.5C 244.772,222.234 240.938,220.067 235.5,221C 229.599,225.867 223.433,230.367 217,234.5C 212.129,228.188 206.795,227.855 201,233.5C 200,240.011 198.834,240.011 197.5,233.5C 199.126,229.25 200.46,224.916 201.5,220.5C 200.963,216.479 200.296,212.479 199.5,208.5C 199.833,207.5 200.167,206.5 200.5,205.5C 203.384,204.184 206.384,203.184 209.5,202.5C 210.722,192.162 209.222,182.162 205,172.5C 201.786,166.071 198.619,159.738 195.5,153.5C 200.647,152.604 205.647,151.604 210.5,150.5 Z"/></g>
<g><path style="opacity:1" fill="#323232" d="M 192.5,161.5 C 200.907,172.387 204.907,184.72 204.5,198.5C 196.009,202.578 187.676,206.912 179.5,211.5C 176.466,204.934 171.466,201.434 164.5,201C 168.214,203.858 170.88,207.358 172.5,211.5C 160.014,210.992 151.014,216.326 145.5,227.5C 139.003,222.176 136.836,215.509 139,207.5C 145.462,198.704 152.962,190.871 161.5,184C 171.547,175.989 181.88,168.489 192.5,161.5 Z"/></g>
<g><path style="opacity:1" fill="#313131" d="M 243.5,155.5 C 249.287,161.559 255.954,166.392 263.5,170C 271.056,171.037 277.556,168.87 283,163.5C 279.54,177.755 273.373,190.755 264.5,202.5C 255.052,187.936 248.052,172.269 243.5,155.5 Z"/></g>
<g><path style="opacity:1" fill="#333232" d="M 304.5,160.5 C 307.807,162.153 311.14,163.82 314.5,165.5C 314.415,176.619 311.915,187.285 307,197.5C 301.176,209.816 294.843,221.816 288,233.5C 287.667,237.833 287.333,242.167 287,246.5C 284.53,248.438 281.696,249.604 278.5,250C 271.976,250.646 265.476,251.48 259,252.5C 257.833,252.167 256.667,251.833 255.5,251.5C 272.735,230.423 286.901,207.423 298,182.5C 300.687,175.277 302.854,167.944 304.5,160.5 Z"/></g>
<g><path style="opacity:1" fill="#343434" d="M 402.5,161.5 C 403.043,161.56 403.376,161.893 403.5,162.5C 400.081,166.331 397.414,170.665 395.5,175.5C 396.002,176.521 396.668,176.688 397.5,176C 400.977,170.526 405.144,165.693 410,161.5C 410.667,162.833 410.667,164.167 410,165.5C 406.915,170 404.082,174.667 401.5,179.5C 403.329,180.282 404.829,179.616 406,177.5C 407.752,174.328 409.752,171.328 412,168.5C 412.667,169.833 412.667,171.167 412,172.5C 409.777,175.779 407.943,179.279 406.5,183C 406.833,183.5 407.167,184 407.5,184.5C 409.232,182.717 410.732,180.717 412,178.5C 409.772,188.094 404.939,196.261 397.5,203C 393.726,204.302 390.559,206.469 388,209.5C 381.678,219.301 374.512,228.468 366.5,237C 359.873,235.902 355.373,232.068 353,225.5C 351.637,221.239 351.304,216.905 352,212.5C 360.9,209.217 369.233,204.884 377,199.5C 378.837,194.158 378.67,188.825 376.5,183.5C 377.741,178.57 378.575,173.57 379,168.5C 381.004,171.475 382.004,174.808 382,178.5C 383.626,181.128 385.626,183.461 388,185.5C 389.562,187.957 390.562,190.624 391,193.5C 393.585,188.153 392.751,183.486 388.5,179.5C 392.231,172.668 396.898,166.668 402.5,161.5 Z"/></g>
<g><path style="opacity:1" fill="#424242" d="M 233.5,144.5 C 234.496,144.414 235.329,144.748 236,145.5C 241.057,167.774 249.557,188.608 261.5,208C 259.739,211.431 257.572,214.597 255,217.5C 241.77,196.534 231.936,174.034 225.5,150C 228.029,147.907 230.696,146.074 233.5,144.5 Z"/></g>
<g><path style="opacity:1" fill="#414141" d="M 292.5,153.5 C 295.97,154.288 298.637,156.288 300.5,159.5C 296.53,174.911 290.697,189.577 283,203.5C 272.944,220.45 261.777,236.617 249.5,252C 244.428,252.751 239.428,252.418 234.5,251C 253.79,229.7 269.956,206.2 283,180.5C 286.639,171.578 289.806,162.578 292.5,153.5 Z"/></g>
<g><path style="opacity:1" fill="#323232" d="M 318.5,177.5 C 322.061,181.603 324.894,186.27 327,191.5C 332.768,197.545 337.935,204.045 342.5,211C 337.2,215.411 335.2,220.911 336.5,227.5C 338.686,222.467 341.852,218.134 346,214.5C 346.006,226.014 350.839,234.847 360.5,241C 354.477,246.867 347.477,248.867 339.5,247C 326.818,238.825 315.151,229.325 304.5,218.5C 303.386,217.277 303.219,215.944 304,214.5C 311.058,203.049 315.891,190.715 318.5,177.5 Z"/></g>
<g><path style="opacity:1" fill="#333332" d="M 164.5,216.5 C 168.106,216.211 171.606,216.544 175,217.5C 177.905,225.81 181.738,233.643 186.5,241C 187.833,241.667 189.167,242.333 190.5,243C 194.222,243.238 197.889,243.738 201.5,244.5C 201.887,246.731 202.053,249.064 202,251.5C 204.667,255.5 208,258.833 212,261.5C 212.684,262.784 212.517,263.951 211.5,265C 207.929,266.119 204.596,267.785 201.5,270C 198.23,271.321 194.897,271.987 191.5,272C 184.2,268.076 179.534,262.076 177.5,254C 168.114,248.612 159.281,242.446 151,235.5C 149.146,232.348 149.479,229.348 152,226.5C 155.462,222.196 159.629,218.862 164.5,216.5 Z"/></g>
<g><path style="opacity:1" fill="#818384" d="M 237.5,224.5 C 239.017,224.511 240.184,225.177 241,226.5C 242.903,228.441 243.736,230.774 243.5,233.5C 240.1,232.476 237.767,230.142 236.5,226.5C 236.863,225.817 237.196,225.15 237.5,224.5 Z"/></g>
<g><path style="opacity:1" fill="#323131" d="M 232.5,228.5 C 233.496,228.414 234.329,228.748 235,229.5C 236.358,231.859 237.358,234.193 238,236.5C 231.823,240.588 225.823,244.922 220,249.5C 217.263,247.035 215.93,244.035 216,240.5C 221.962,237.024 227.462,233.024 232.5,228.5 Z"/></g>
<g><path style="opacity:1" fill="#616262" d="M 207.5,233.5 C 213.125,234.417 213.792,236.751 209.5,240.5C 211.495,245.16 213.995,249.494 217,253.5C 218.889,254.097 220.722,254.431 222.5,254.5C 224.116,257.267 223.449,259.267 220.5,260.5C 218.528,259.695 217.028,258.361 216,256.5C 212.667,250.5 209.333,244.5 206,238.5C 205.387,236.505 205.887,234.838 207.5,233.5 Z"/></g>
<g><path style="opacity:1" fill="#393838" d="M 297.5,252.5 C 299.109,255.53 301.109,258.363 303.5,261C 306.882,261.176 310.215,261.676 313.5,262.5C 309.824,264.571 307.324,267.571 306,271.5C 305.5,271 305,270.5 304.5,270C 306.14,263.969 303.807,261.303 297.5,262C 295.951,263.214 294.785,264.714 294,266.5C 293.075,265.953 292.242,265.287 291.5,264.5C 295.761,261.71 297.761,257.71 297.5,252.5 Z"/></g>
<g><path style="opacity:1" fill="#6c1f29" d="M 276.5,254.5 C 278.833,254.5 281.167,254.5 283.5,254.5C 282.841,257.455 282.508,260.455 282.5,263.5C 263.924,265.199 245.924,262.865 228.5,256.5C 229,256.167 229.5,255.833 230,255.5C 245.682,258.201 261.182,257.868 276.5,254.5 Z"/></g>
<g><path style="opacity:1" fill="#681f28" d="M 229.5,261.5 C 241.658,264.415 253.992,266.248 266.5,267C 253.89,268.586 241.224,268.92 228.5,268C 227.5,267.667 226.5,267.333 225.5,267C 227.439,265.568 228.772,263.735 229.5,261.5 Z"/></g>
<g><path style="opacity:1" fill="#a0a09f" d="M 297.5,264.5 C 299.167,264.5 300.833,264.5 302.5,264.5C 302.665,270.325 300.665,270.992 296.5,266.5C 296.863,265.817 297.196,265.15 297.5,264.5 Z"/></g>
<g><path style="opacity:1" fill="#343333" d="M 176.5,265.5 C 179.144,267.153 181.144,269.487 182.5,272.5C 178.577,275.795 174.244,277.962 169.5,279C 167.594,277.144 166.76,274.977 167,272.5C 170.145,270.024 173.312,267.69 176.5,265.5 Z"/></g>
<g><path style="opacity:1" fill="#959796" d="M 210.5,269.5 C 211.833,269.5 213.167,269.5 214.5,269.5C 215.085,272.261 214.085,273.927 211.5,274.5C 208.031,273.431 207.698,271.764 210.5,269.5 Z"/></g>
<g><path style="opacity:1" fill="#313131" d="M 282.5,267.5 C 290.528,269.787 298.195,272.954 305.5,277C 277.577,290.482 248.244,295.315 217.5,291.5C 217.544,288.684 218.544,286.351 220.5,284.5C 223.313,286.275 226.313,287.108 229.5,287C 226.451,282.469 224.118,277.636 222.5,272.5C 234.817,273.51 247.15,273.677 259.5,273C 267.542,272.238 275.209,270.405 282.5,267.5 Z"/></g>
<g><path style="opacity:1" fill="#323232" d="M 185.5,275.5 C 190.841,276.74 196.174,276.74 201.5,275.5C 200.776,278.843 199.943,282.176 199,285.5C 198.632,286.91 197.799,287.91 196.5,288.5C 190.022,286.619 183.688,284.452 177.5,282C 180.355,279.969 183.022,277.803 185.5,275.5 Z"/></g>
<g><path style="opacity:1" fill="#303031" d="M 168.5,254.5 C 171.453,255.787 173.786,257.787 175.5,260.5C 172.18,263.494 168.513,265.994 164.5,268C 162.513,269.319 161.346,271.152 161,273.5C 151.167,280.667 141.333,287.833 131.5,295C 126.756,295.964 122.756,294.631 119.5,291C 136.299,279.355 152.632,267.189 168.5,254.5 Z"/></g>
<g><path style="opacity:1" fill="#3b3b3b" d="M 216.5,264.5 C 218.527,264.338 220.527,264.505 222.5,265C 220.705,267.114 219.371,269.448 218.5,272C 219.873,275.545 221.039,279.045 222,282.5C 215.245,276.653 209.245,277.319 204,284.5C 204.397,280.725 204.73,277.059 205,273.5C 210.286,279.208 214.453,278.541 217.5,271.5C 215.652,269.32 215.319,266.986 216.5,264.5 Z"/></g>
<g><path style="opacity:1" fill="#691d28" d="M 211.5,281.5 C 213.346,281.222 214.68,281.889 215.5,283.5C 212.483,290.197 209.483,296.864 206.5,303.5C 203.772,302.14 201.439,300.307 199.5,298C 201.418,290.925 205.418,285.425 211.5,281.5 Z"/></g>
<g><path style="opacity:1" fill="#323131" d="M 306.5,281.5 C 321.977,287.153 335.81,295.486 348,306.5C 353.285,313.305 355.285,320.971 354,329.5C 351,335.167 348,340.833 345,346.5C 344.052,348.57 342.552,350.07 340.5,351C 327.412,351.308 315.079,348.308 303.5,342C 300.309,339.811 299.309,336.978 300.5,333.5C 304.122,332.675 307.789,332.175 311.5,332C 314.032,331.381 316.365,330.381 318.5,329C 311.792,328.711 305.125,328.045 298.5,327C 284.774,323.203 271.108,319.203 257.5,315C 261.29,312.623 265.29,310.623 269.5,309C 257.404,308.918 246.071,311.918 235.5,318C 220.992,327.754 206.659,337.754 192.5,348C 193.449,348.617 194.282,348.451 195,347.5C 194.277,353.11 191.777,357.943 187.5,362C 183.961,363.504 180.295,363.837 176.5,363C 166.079,359.873 156.579,355.04 148,348.5C 147.333,344.167 147.333,339.833 148,335.5C 151.721,331.289 155.721,327.289 160,323.5C 165.754,310.976 172.754,299.309 181,288.5C 185.613,290.655 190.446,291.989 195.5,292.5C 194.679,295.554 194.679,298.554 195.5,301.5C 199.666,304.417 203.999,307.084 208.5,309.5C 211.055,305.872 213.055,301.872 214.5,297.5C 246.782,301.009 277.449,295.676 306.5,281.5 Z"/></g>
<g><path style="opacity:1" fill="#3f3e3e" d="M 300.5,347.5 C 310.357,350.896 320.357,353.896 330.5,356.5C 328.973,358.193 327.64,360.027 326.5,362C 325.167,362.667 323.833,362.667 322.5,362C 316.675,359.255 311.008,356.255 305.5,353C 303.234,351.574 301.568,349.74 300.5,347.5 Z"/></g>
<g><path style="opacity:1" fill="#414040" d="M 298.5,352.5 C 304.667,356.478 311.001,360.311 317.5,364C 310.174,364.5 302.841,364.666 295.5,364.5C 296.188,360.416 297.188,356.416 298.5,352.5 Z"/></g>
<g><path style="opacity:1" fill="#414141" d="M 144.5,352.5 C 153.573,359.261 163.573,364.428 174.5,368C 171.167,371.333 167.833,374.667 164.5,378C 156.278,374.136 149.445,368.302 144,360.5C 142.089,357.722 142.255,355.056 144.5,352.5 Z"/></g>
<g><path style="opacity:1" fill="#414141" d="M 139.5,361.5 C 144.969,367.802 150.969,373.635 157.5,379C 149.423,379.685 141.423,379.185 133.5,377.5C 134.94,371.954 136.94,366.62 139.5,361.5 Z"/></g>
<g><path style="opacity:1" fill="#403f3f" d="M 311.5,367.5 C 314.85,367.335 318.183,367.502 321.5,368C 319.021,371.313 316.355,374.48 313.5,377.5C 308.825,375.164 304.492,372.331 300.5,369C 304.356,368.823 308.023,368.323 311.5,367.5 Z"/></g>
<g><path style="opacity:1" fill="#404041" d="M 293.5,369.5 C 294.552,369.351 295.552,369.517 296.5,370C 300.984,374.078 305.984,377.411 311.5,380C 310.299,380.903 309.465,382.069 309,383.5C 307.527,385.007 305.693,385.674 303.5,385.5C 299.437,384.984 295.437,384.151 291.5,383C 290.978,382.439 290.645,381.772 290.5,381C 291.819,377.233 292.819,373.399 293.5,369.5 Z"/></g>
<g><path style="opacity:1" fill="#3f3d3e" d="M 134.5,380.5 C 141.979,382.709 149.646,383.875 157.5,384C 155.021,387.647 152.021,390.813 148.5,393.5C 142.51,390.507 137.844,386.174 134.5,380.5 Z"/></g>
<g><path style="opacity:1" fill="#333333" d="M 288.5,386.5 C 294.37,388.201 300.37,389.368 306.5,390C 313.781,398.144 322.781,403.477 333.5,406C 334.687,407.019 335.687,408.186 336.5,409.5C 317.842,410.666 299.176,410.833 280.5,410C 279.263,400.946 281.93,393.112 288.5,386.5 Z"/></g>
<g><path style="opacity:1" fill="#434242" d="M 130.5,382.5 C 134.517,387.68 139.35,392.013 145,395.5C 145.333,397.047 144.833,398.38 143.5,399.5C 137.571,400.978 132.071,399.978 127,396.5C 127.629,391.765 128.795,387.098 130.5,382.5 Z"/></g>
<g><path style="opacity:1" fill="#353435" d="M 123.5,400.5 C 128.528,402.838 133.861,404.172 139.5,404.5C 139.002,407.467 138.669,410.467 138.5,413.5C 139.058,418.631 139.891,423.631 141,428.5C 135.644,431.798 129.811,433.464 123.5,433.5C 125.408,421.912 124.075,421.578 119.5,432.5C 113.942,434.382 109.608,432.882 106.5,428C 112.308,418.878 117.974,409.711 123.5,400.5 Z"/></g>
</svg>
